<mxfile host="app.diagrams.net" modified="2023-11-01T01:51:13.302Z" agent="Mozilla/5.0 (X11; Linux x86_64) AppleWebKit/537.36 (KHTML, like Gecko) SamsungBrowser/22.0 Chrome/111.0.5563.116 Safari/537.36" version="22.0.8" etag="N3I898Ewbzqk463m72sF" type="github">
  <diagram name="Page-1" id="1QJYVEyyZ49zdlTERRY0">
    <mxGraphModel>
      <root>
        <mxCell id="0" />
        <mxCell id="1" parent="0" />
      </root>
    </mxGraphModel>
  </diagram>
</mxfile>
